<svg width="151" height="151" viewBox="0 0 151 151" fill="none" xmlns="http://www.w3.org/2000/svg">
<path d="M96.4968 8.90672C97.1071 6.97101 99.1752 5.88784 101.078 6.59411C116.27 12.2328 129.208 22.7508 137.832 36.5509C147.105 51.3923 150.779 69.0556 148.193 86.364C145.606 103.672 136.928 119.49 123.72 130.971C110.512 142.453 93.6413 148.844 76.1414 148.997C58.6415 149.15 41.6614 143.053 28.2551 131.804C14.8489 120.555 5.89645 104.892 3.00802 87.631C0.119577 70.3705 3.48472 52.6457 12.4982 37.6447C20.8793 23.6962 33.6325 12.954 48.7232 7.05102C50.6134 6.31164 52.7001 7.35856 53.3441 9.28332C53.9882 11.2081 52.945 13.2809 51.059 14.0308C37.6266 19.3713 26.278 28.9821 18.7984 41.4303C10.6862 54.9311 7.65762 70.8834 10.2572 86.4179C12.8568 101.952 20.914 116.05 32.9796 126.174C45.0452 136.298 60.3274 141.785 76.0773 141.647C91.8272 141.51 107.011 135.757 118.898 125.424C130.785 115.091 138.595 100.855 140.923 85.2776C143.251 69.7001 139.945 53.803 131.598 40.4458C123.903 28.1301 112.388 18.7188 98.8645 13.6136C96.9657 12.8967 95.8865 10.8424 96.4968 8.90672Z" fill="white"/>
<circle cx="75.5" cy="75.5" r="61.5" fill="white" fill-opacity="0.25"/>
<g filter="url(#filter0_d_503_6)">
<circle cx="75.5" cy="75.5" r="55.5" fill="white" fill-opacity="0.5" shape-rendering="crispEdges"/>
</g>
<g filter="url(#filter1_d_503_6)">
<circle cx="75.5" cy="75.5" r="49.5" fill="white"/>
</g>
<g filter="url(#filter2_d_503_6)">
<path d="M37.6978 69.625V81H36.19V69.625H37.6978ZM42.4634 74.7422V75.9766H37.3697V74.7422H42.4634ZM43.2369 69.625V70.8594H37.3697V69.625H43.2369ZM53.335 79.0469V72.5469H54.7881V81H53.4053L53.335 79.0469ZM53.6084 77.2656L54.21 77.25C54.21 77.8125 54.1501 78.3333 54.0303 78.8125C53.9157 79.2865 53.7282 79.6979 53.4678 80.0469C53.2074 80.3958 52.8662 80.6693 52.4444 80.8672C52.0225 81.0599 51.5095 81.1562 50.9053 81.1562C50.4939 81.1562 50.1162 81.0964 49.7725 80.9766C49.434 80.8568 49.1423 80.6719 48.8975 80.4219C48.6527 80.1719 48.4626 79.8464 48.3272 79.4453C48.197 79.0443 48.1319 78.5625 48.1319 78V72.5469H49.5772V78.0156C49.5772 78.3958 49.6189 78.7109 49.7022 78.9609C49.7907 79.2057 49.9079 79.401 50.0537 79.5469C50.2048 79.6875 50.3715 79.7865 50.5537 79.8438C50.7412 79.901 50.934 79.9297 51.1319 79.9297C51.7465 79.9297 52.2334 79.8125 52.5928 79.5781C52.9522 79.3385 53.21 79.0182 53.3662 78.6172C53.5277 78.2109 53.6084 77.7604 53.6084 77.2656ZM61.9566 73.875V81H60.5112V72.5469H61.9175L61.9566 73.875ZM64.5972 72.5L64.5894 73.8438C64.4696 73.8177 64.355 73.8021 64.2456 73.7969C64.1415 73.7865 64.0217 73.7812 63.8862 73.7812C63.5529 73.7812 63.2586 73.8333 63.0034 73.9375C62.7482 74.0417 62.5321 74.1875 62.355 74.375C62.1779 74.5625 62.0373 74.7865 61.9331 75.0469C61.8342 75.3021 61.7691 75.5833 61.7378 75.8906L61.3316 76.125C61.3316 75.6146 61.381 75.1354 61.48 74.6875C61.5842 74.2396 61.743 73.8438 61.9566 73.5C62.1701 73.151 62.4409 72.8802 62.7691 72.6875C63.1024 72.4896 63.4982 72.3906 63.9566 72.3906C64.0607 72.3906 64.1805 72.4036 64.3159 72.4297C64.4514 72.4505 64.5451 72.474 64.5972 72.5ZM74.625 79.0469V72.5469H76.0781V81H74.6953L74.625 79.0469ZM74.8984 77.2656L75.5 77.25C75.5 77.8125 75.4401 78.3333 75.3203 78.8125C75.2057 79.2865 75.0182 79.6979 74.7578 80.0469C74.4974 80.3958 74.1562 80.6693 73.7344 80.8672C73.3125 81.0599 72.7995 81.1562 72.1953 81.1562C71.7839 81.1562 71.4062 81.0964 71.0625 80.9766C70.724 80.8568 70.4323 80.6719 70.1875 80.4219C69.9427 80.1719 69.7526 79.8464 69.6172 79.4453C69.487 79.0443 69.4219 78.5625 69.4219 78V72.5469H70.8672V78.0156C70.8672 78.3958 70.9089 78.7109 70.9922 78.9609C71.0807 79.2057 71.1979 79.401 71.3438 79.5469C71.4948 79.6875 71.6615 79.7865 71.8438 79.8438C72.0312 79.901 72.224 79.9297 72.4219 79.9297C73.0365 79.9297 73.5234 79.8125 73.8828 79.5781C74.2422 79.3385 74.5 79.0182 74.6562 78.6172C74.8177 78.2109 74.8984 77.7604 74.8984 77.2656ZM88.8872 77.3828H90.3872C90.3091 78.1016 90.1033 78.7448 89.77 79.3125C89.4367 79.8802 88.9653 80.3307 88.3559 80.6641C87.7466 80.9922 86.9861 81.1562 86.0747 81.1562C85.408 81.1562 84.8013 81.0312 84.2544 80.7812C83.7127 80.5312 83.2466 80.1771 82.8559 79.7188C82.4653 79.2552 82.1632 78.7005 81.9497 78.0547C81.7414 77.4036 81.6372 76.6797 81.6372 75.8828V74.75C81.6372 73.9531 81.7414 73.2318 81.9497 72.5859C82.1632 71.9349 82.4679 71.3776 82.8638 70.9141C83.2648 70.4505 83.7466 70.0938 84.3091 69.8438C84.8716 69.5938 85.5044 69.4688 86.2075 69.4688C87.0669 69.4688 87.7934 69.6302 88.3872 69.9531C88.9809 70.276 89.4419 70.724 89.77 71.2969C90.1033 71.8646 90.3091 72.5234 90.3872 73.2734H88.8872C88.8143 72.7422 88.6789 72.2865 88.4809 71.9062C88.283 71.5208 88.0018 71.224 87.6372 71.0156C87.2726 70.8073 86.796 70.7031 86.2075 70.7031C85.7023 70.7031 85.257 70.7995 84.8716 70.9922C84.4914 71.1849 84.171 71.4583 83.9106 71.8125C83.6554 72.1667 83.4627 72.5911 83.3325 73.0859C83.2023 73.5807 83.1372 74.1302 83.1372 74.7344V75.8828C83.1372 76.4401 83.1945 76.9635 83.3091 77.4531C83.4289 77.9427 83.6085 78.3724 83.8481 78.7422C84.0877 79.112 84.3924 79.4036 84.7622 79.6172C85.132 79.8255 85.5695 79.9297 86.0747 79.9297C86.7153 79.9297 87.2257 79.8281 87.6059 79.625C87.9861 79.4219 88.2726 79.1302 88.4653 78.75C88.6632 78.3698 88.8039 77.9141 88.8872 77.3828ZM95.3603 76.8672V76.6875C95.3603 76.0781 95.4489 75.513 95.6259 74.9922C95.803 74.4661 96.0582 74.0104 96.3916 73.625C96.7249 73.2344 97.1285 72.9323 97.6025 72.7188C98.0765 72.5 98.6077 72.3906 99.1962 72.3906C99.79 72.3906 100.324 72.5 100.798 72.7188C101.277 72.9323 101.683 73.2344 102.017 73.625C102.355 74.0104 102.613 74.4661 102.79 74.9922C102.967 75.513 103.056 76.0781 103.056 76.6875V76.8672C103.056 77.4766 102.967 78.0417 102.79 78.5625C102.613 79.0833 102.355 79.5391 102.017 79.9297C101.683 80.3151 101.28 80.6172 100.806 80.8359C100.337 81.0495 99.8056 81.1562 99.2119 81.1562C98.6181 81.1562 98.0843 81.0495 97.6103 80.8359C97.1364 80.6172 96.7301 80.3151 96.3916 79.9297C96.0582 79.5391 95.803 79.0833 95.6259 78.5625C95.4489 78.0417 95.3603 77.4766 95.3603 76.8672ZM96.8056 76.6875V76.8672C96.8056 77.2891 96.8551 77.6875 96.9541 78.0625C97.053 78.4323 97.2015 78.7604 97.3994 79.0469C97.6025 79.3333 97.8551 79.5599 98.1572 79.7266C98.4593 79.888 98.8108 79.9688 99.2119 79.9688C99.6077 79.9688 99.9541 79.888 100.251 79.7266C100.553 79.5599 100.803 79.3333 101.001 79.0469C101.199 78.7604 101.347 78.4323 101.446 78.0625C101.55 77.6875 101.602 77.2891 101.602 76.8672V76.6875C101.602 76.2708 101.55 75.8776 101.446 75.5078C101.347 75.1328 101.196 74.8021 100.993 74.5156C100.795 74.224 100.545 73.9948 100.243 73.8281C99.9462 73.6615 99.5973 73.5781 99.1962 73.5781C98.8004 73.5781 98.4515 73.6615 98.1494 73.8281C97.8525 73.9948 97.6025 74.224 97.3994 74.5156C97.2015 74.8021 97.053 75.1328 96.9541 75.5078C96.8551 75.8776 96.8056 76.2708 96.8056 76.6875ZM109.833 74.3516V81H108.388V72.5469H109.755L109.833 74.3516ZM109.49 76.4531L108.888 76.4297C108.893 75.8516 108.979 75.3177 109.146 74.8281C109.313 74.3333 109.547 73.9036 109.849 73.5391C110.151 73.1745 110.511 72.8932 110.927 72.6953C111.349 72.4922 111.815 72.3906 112.326 72.3906C112.742 72.3906 113.117 72.4479 113.451 72.5625C113.784 72.6719 114.068 72.849 114.302 73.0938C114.542 73.3385 114.724 73.6562 114.849 74.0469C114.974 74.4323 115.037 74.9036 115.037 75.4609V81H113.583V75.4453C113.583 75.0026 113.518 74.6484 113.388 74.3828C113.258 74.112 113.068 73.9167 112.818 73.7969C112.568 73.6719 112.261 73.6094 111.896 73.6094C111.537 73.6094 111.208 73.6849 110.912 73.8359C110.62 73.987 110.367 74.1953 110.154 74.4609C109.945 74.7266 109.781 75.0312 109.662 75.375C109.547 75.7135 109.49 76.0729 109.49 76.4531Z" fill="black"/>
</g>
<defs>
<filter id="filter0_d_503_6" x="0" y="0" width="151" height="151" filterUnits="userSpaceOnUse" color-interpolation-filters="sRGB">
<feFlood flood-opacity="0" result="BackgroundImageFix"/>
<feColorMatrix in="SourceAlpha" type="matrix" values="0 0 0 0 0 0 0 0 0 0 0 0 0 0 0 0 0 0 127 0" result="hardAlpha"/>
<feMorphology radius="5" operator="dilate" in="SourceAlpha" result="effect1_dropShadow_503_6"/>
<feOffset/>
<feGaussianBlur stdDeviation="7.5"/>
<feComposite in2="hardAlpha" operator="out"/>
<feColorMatrix type="matrix" values="0 0 0 0 1 0 0 0 0 1 0 0 0 0 1 0 0 0 0.25 0"/>
<feBlend mode="normal" in2="BackgroundImageFix" result="effect1_dropShadow_503_6"/>
<feBlend mode="normal" in="SourceGraphic" in2="effect1_dropShadow_503_6" result="shape"/>
</filter>
<filter id="filter1_d_503_6" x="6" y="6" width="139" height="139" filterUnits="userSpaceOnUse" color-interpolation-filters="sRGB">
<feFlood flood-opacity="0" result="BackgroundImageFix"/>
<feColorMatrix in="SourceAlpha" type="matrix" values="0 0 0 0 0 0 0 0 0 0 0 0 0 0 0 0 0 0 127 0" result="hardAlpha"/>
<feMorphology radius="5" operator="dilate" in="SourceAlpha" result="effect1_dropShadow_503_6"/>
<feOffset/>
<feGaussianBlur stdDeviation="7.5"/>
<feComposite in2="hardAlpha" operator="out"/>
<feColorMatrix type="matrix" values="0 0 0 0 1 0 0 0 0 1 0 0 0 0 1 0 0 0 0.5 0"/>
<feBlend mode="normal" in2="BackgroundImageFix" result="effect1_dropShadow_503_6"/>
<feBlend mode="normal" in="SourceGraphic" in2="effect1_dropShadow_503_6" result="shape"/>
</filter>
<filter id="filter2_d_503_6" x="31.1899" y="64.4688" width="88.8467" height="21.6875" filterUnits="userSpaceOnUse" color-interpolation-filters="sRGB">
<feFlood flood-opacity="0" result="BackgroundImageFix"/>
<feColorMatrix in="SourceAlpha" type="matrix" values="0 0 0 0 0 0 0 0 0 0 0 0 0 0 0 0 0 0 127 0" result="hardAlpha"/>
<feOffset/>
<feGaussianBlur stdDeviation="2.5"/>
<feComposite in2="hardAlpha" operator="out"/>
<feColorMatrix type="matrix" values="0 0 0 0 0 0 0 0 0 0 0 0 0 0 0 0 0 0 0.5 0"/>
<feBlend mode="normal" in2="BackgroundImageFix" result="effect1_dropShadow_503_6"/>
<feBlend mode="normal" in="SourceGraphic" in2="effect1_dropShadow_503_6" result="shape"/>
</filter>
</defs>
</svg>
